<svg xmlns="http://www.w3.org/2000/svg">
	<symbol id="github" viewBox="0 0 100 100">
		<path
      d="M 48.853999,0 C 25,0 0,22 0,49.217 c 0,21.756 13.993,40.172 33.405,46.69 2.427,0.49 3.316,-1.059 3.316,-2.362 0,-1.141 -0.08,-5.052 -0.08,-9.127 -13.59,2.934 -16.42,-5.867 -16.42,-5.867 -2.184,-5.704 -5.42,-7.17 -5.42,-7.17 -4.448,-3.015 0.324,-3.015 0.324,-3.015 4.934,0.326 7.523,5.052 7.523,5.052 4.367,7.496 11.404,5.378 14.235,4.074 0.404,-3.178 1.699,-5.378 3.074,-6.6 -10.839,-1.141 -22.243,-5.378 -22.243,-24.283 0,-5.378 1.94,-9.778 5.014,-13.2 -0.485,-1.222 -2.184,-6.275 0.486,-13.038 0,0 4.125,-1.304 13.426,5.052 a 46.97,46.97 0 0 1 12.213999,-1.63 c 4.125,0 8.33,0.571 12.213001,1.63 9.301999,-6.356 13.426999,-5.052 13.426999,-5.052 2.67,6.763 0.97,11.816 0.485,13.038 3.155,3.422 5.015,7.822 5.015,13.2 0,18.905 -11.403999,23.06 -22.324,24.283 1.78,1.548 3.316,4.481 3.316,9.126 0,6.6 -0.08,11.897 -0.08,13.526 0,1.304 0.89,2.853 3.316001,2.364 C 83.634,89.388 97.627,70.973 97.627,49.217 97.707,22 75.788,0 48.853999,0 Z"
		/>
	</symbol>
	<symbol id="xcom" viewBox="0 0 25 25">
		<path
			d="M18.244 2.25h3.308l-7.227 8.26 8.502 11.24H16.17l-5.214-6.817L4.99 21.75H1.68l7.73-8.835L1.254 2.25H8.08l4.713 6.231zm-1.161 17.52h1.833L7.084 4.126H5.117z"
		/>
	</symbol>
	<symbol id="right-triangle" viewBox="0 0 24 24">
		<polygon
			points="6 0 20 11 6 21 6 0">
		</polygon>
	</symbol>
	<symbol id="book" viewBox="0 0 24 24">
		<path d="M2 3h6a4 4 0 0 1 4 4v14a3 3 0 0 0-3-3H2z"></path>
		<path d="M22 3h-6a4 4 0 0 0-4 4v14a3 3 0 0 1 3-3h7z"></path>
	</symbol>
	<symbol id="angled-brackets" viewBox="0 0 24 24">
		<polyline
			points="16 18 22 12 16 6">
		</polyline>
		<polyline
			points="8 6 2 12 8 18">
		</polyline>
	</symbol>
	<symbol id="lightning" viewBox="0 0 24 24">
		<path
			d="M4 14a1 1 0 0 1-.78-1.63l9.9-10.2a.5.5 0 0 1 .86.46l-1.92 6.02A1 1 0 0 0 13 10h7a1 1 0 0 1 .78 1.63l-9.9 10.2a.5.5 0 0 1-.86-.46l1.92-6.02A1 1 0 0 0 11 14z">
		</path>
	</symbol>
	<symbol id="stack" viewBox="0 0 24 24">
		<path
			d="m12.83 2.18a2 2 0 0 0-1.66 0L2.6 6.08a1 1 0 0 0 0 1.83l8.58 3.91a2 2 0 0 0 1.66 0l8.58-3.9a1 1 0 0 0 0-1.83Z">
		</path>
		<path
			d="m22 17.65-9.17 4.16a2 2 0 0 1-1.66 0L2 17.65">
		</path>
		<path
			d="m22 12.65-9.17 4.16a2 2 0 0 1-1.66 0L2 12.65">
		</path>
	</symbol>
</svg>