<svg xmlns="http://www.w3.org/2000/svg">
	<symbol id="github" viewBox="0 0 100 100">
		<path
      d="M 48.853999,0 C 25,0 0,22 0,49.217 c 0,21.756 13.993,40.172 33.405,46.69 2.427,0.49 3.316,-1.059 3.316,-2.362 0,-1.141 -0.08,-5.052 -0.08,-9.127 -13.59,2.934 -16.42,-5.867 -16.42,-5.867 -2.184,-5.704 -5.42,-7.17 -5.42,-7.17 -4.448,-3.015 0.324,-3.015 0.324,-3.015 4.934,0.326 7.523,5.052 7.523,5.052 4.367,7.496 11.404,5.378 14.235,4.074 0.404,-3.178 1.699,-5.378 3.074,-6.6 -10.839,-1.141 -22.243,-5.378 -22.243,-24.283 0,-5.378 1.94,-9.778 5.014,-13.2 -0.485,-1.222 -2.184,-6.275 0.486,-13.038 0,0 4.125,-1.304 13.426,5.052 a 46.97,46.97 0 0 1 12.213999,-1.63 c 4.125,0 8.33,0.571 12.213001,1.63 9.301999,-6.356 13.426999,-5.052 13.426999,-5.052 2.67,6.763 0.97,11.816 0.485,13.038 3.155,3.422 5.015,7.822 5.015,13.2 0,18.905 -11.403999,23.06 -22.324,24.283 1.78,1.548 3.316,4.481 3.316,9.126 0,6.6 -0.08,11.897 -0.08,13.526 0,1.304 0.89,2.853 3.316001,2.364 C 83.634,89.388 97.627,70.973 97.627,49.217 97.707,22 75.788,0 48.853999,0 Z"
		/>
	</symbol>
	<symbol id="star" viewBox="0 0 16 16">
    <path d="M8 .25a.75.75 0 0 1 .673.418l1.882 3.815 4.21.612a.75.75 0 0 1 .416 1.279l-3.046 2.97.719 4.192a.751.751 0 0 1-1.088.791L8 12.347l-3.766 1.98a.75.75 0 0 1-1.088-.79l.72-4.194L.818 6.374a.75.75 0 0 1 .416-1.28l4.21-.611L7.327.668A.75.75 0 0 1 8 .25Z"></path>
	</symbol>
	<symbol id="xcom" viewBox="0 0 25 25">
		<path
			d="M18.244 2.25h3.308l-7.227 8.26 8.502 11.24H16.17l-5.214-6.817L4.99 21.75H1.68l7.73-8.835L1.254 2.25H8.08l4.713 6.231zm-1.161 17.52h1.833L7.084 4.126H5.117z"
		/>
	</symbol>
	<symbol id="right-triangle" viewBox="0 0 24 24">
		<polygon
			points="6 0 20 11 6 21 6 0">
		</polygon>
	</symbol>
	<symbol id="book" viewBox="0 0 24 24">
		<path d="M2 3h6a4 4 0 0 1 4 4v14a3 3 0 0 0-3-3H2z"></path>
		<path d="M22 3h-6a4 4 0 0 0-4 4v14a3 3 0 0 1 3-3h7z"></path>
	</symbol>
	<symbol id="angled-brackets" viewBox="0 0 24 24">
		<polyline
			points="16 18 22 12 16 6">
		</polyline>
		<polyline
			points="8 6 2 12 8 18">
		</polyline>
	</symbol>
	<symbol id="lightning"
   viewBox="0 0 38 15">
    <text
       transform="matrix(0.26041615,0,0,0.24861899,-37.406877,-65.104751)"
       style="font-style:normal;font-variant:normal;font-weight:normal;font-stretch:normal;font-size:66.6667px;font-family:'Arial';-inkscape-font-specification:'PT Mono, Normal';font-variant-ligatures:normal;font-variant-caps:normal;font-variant-numeric:normal;font-variant-east-asian:normal;text-align:center;writing-mode:lr-tb;direction:ltr;white-space:pre;shape-inside:url(#rect1);fill:#ffffff;fill-opacity:1"
			 class="Fnst-n"><tspan
         x="145"
         y="320"
         id="tspan2">ABC</tspan></text>
	</symbol>
	<symbol id="sass" viewBox="0 0 730.35999 547.46667" >
		<g transform="matrix(1.3333333,0,0,-1.3333333,0,547.46667)" id="g10">
			<g transform="scale(0.1)">
				<path
         style="fill:#ffffff;fill-opacity:1;fill-rule:nonzero;stroke:none"
         d="m 3873.13,1003.19 c -17.38,12.37 -14.49,52.35 42.67,176.87 22.44,48.89 73.64,131.2 162.65,209.86 10.31,-32.35 16.6,-63.37 16.42,-92.25 -1.15,-192.66 -138.61,-264.61 -221.74,-294.48 z M 3141.45,836.402 c -23.3,-12.191 -44.66,-19.851 -54.59,-13.941 -7.28,4.348 9.61,20.398 9.61,20.398 0,0 118.81,127.801 165.6,186.001 27.22,33.84 58.78,74.01 93.17,118.94 0.28,-4.49 0.43,-8.94 0.43,-13.34 -0.35,-153.12 -148.26,-256.499 -214.22,-298.058 z m -949.78,453.178 c -54.96,-133.99 -169.99,-476.779 -240,-458.408 -60.1,15.769 -96.7,276.348 -12,532.798 42.63,129.09 133.7,283.34 187.2,343.21 86.13,96.34 180.96,127.85 204,88.79 29.37,-49.77 -104.74,-422.4 -139.2,-506.39 z M 1042.07,508.059 C 884.273,335.91 663.809,270.852 569.273,325.648 467.191,384.84 507.621,638.281 701.27,820.961 c 118.031,111.328 270.398,213.869 371.48,277.029 23,13.84 56.8,34.17 97.87,58.78 6.81,3.88 10.65,6.03 10.65,6.03 l -0.15,0.26 c 7.93,4.74 16.05,9.61 24.44,14.62 70.46,-260.02 2.14,-488.938 -163.49,-669.621 z m 3672.1,1237.981 c -191.45,-1.01 -357.27,-46.97 -496.27,-115.48 -50.84,101.46 -102.29,190.72 -110.93,257.09 -10.09,77.48 -21.78,123.7 -9.6,216 12.19,92.3 65.59,223 64.81,232.79 -0.78,9.79 -11.98,56.81 -122.4,57.61 -110.43,0.79 -204.89,-21.24 -216,-50.4 -11.12,-29.16 -32.38,-94.78 -45.61,-163.2 -19.34,-100.13 -220.47,-457.23 -334.67,-644.05 -37.35,72.91 -69.11,137.2 -75.73,188.04 -10.08,77.48 -21.78,123.7 -9.6,216.01 12.19,92.29 65.59,223.01 64.81,232.8 -0.78,9.79 -11.97,56.8 -122.4,57.6 -110.43,0.79 -204.89,-21.24 -216,-50.4 -11.12,-29.16 -22.99,-97.29 -45.61,-163.2 -22.62,-65.92 -289.98,-661.61 -360,-816.01 -35.68,-78.67 -66.73,-141.87 -88.65,-185.04 -0.06,0.11 -0.14,0.24 -0.14,0.24 0,0 -1.35,-2.87 -3.68,-7.72 -18.76,-36.74 -29.93,-57.068 -29.93,-57.068 0,0 0.12,-0.281 0.33,-0.761 -14.88,-26.981 -30.83,-52.039 -38.73,-52.039 -5.52,0 -16.57,71.82 2.41,170.398 39.78,206.64 135.35,528.9 134.4,540 -0.5,5.69 17.76,61.84 -62.41,91.2 -77.93,28.52 -105.68,-19.05 -112.79,-19.2 -6.89,-0.15 -12.01,-16.81 -12.01,-16.81 0,0 86.82,362.4 -165.6,362.4 -157.81,0 -376.48,-172.63 -484.2,-329.11 -67.98,-37.08 -213.45,-116.49 -367.79,-201.29 -59.28,-32.56 -119.77,-65.85 -177.13,-97.45 -3.9,4.32 -7.79,8.65 -11.8,12.93 -306.074,326.55 -871.887,557.52 -847.875,996.53 8.727,159.6 64.203,579.84 1087.205,1089.6 838,417.58 1508.86,302.67 1624.8,48 C 3291,3182.21 2766.84,2506 1896.57,2408.45 c -331.58,-37.17 -506.17,91.33 -549.6,139.2 -45.71,50.38 -52.53,52.65 -69.6,43.2 -27.8,-15.41 -10.18,-59.89 0,-86.4 25.99,-67.63 132.61,-187.55 314.4,-247.2 159.92,-52.48 549.22,-81.31 1020,100.8 527.3,203.96 939.04,771.34 818.1,1245.6 -122.99,482.35 -922.76,640.92 -1679.69,372 C 1299.69,3815.61 812.016,3564.42 461.379,3236.45 44.4609,2846.48 -22.0234,2507.07 5.37109,2365.25 102.711,1861.34 797.262,1533.19 1075.39,1289.99 c -13.73,-7.57 -26.6,-14.68 -38.31,-21.14 C 897.637,1199.87 368.203,922.801 235.773,630.051 85.5547,297.98 259.688,59.7305 374.973,27.6523 732.156,-71.7383 1098.69,107.031 1295.67,400.84 c 196.94,293.742 172.89,676.22 82.5,850.81 -1.12,2.17 -2.36,4.29 -3.51,6.44 36,21.31 72.72,42.98 109.11,64.35 70.97,41.67 140.63,80.55 201.09,113.45 -33.82,-92.69 -58.6,-203.79 -71.49,-364.24 -15.14,-188.502 62.11,-432.15 163.2,-528.009 44.51,-42.2 98.06,-43.192 132,-43.192 117.63,0 171.31,97.86 230.4,213.602 72.49,141.949 136.8,307.199 136.8,307.199 0,0 -80.72,-446.398 139.21,-446.398 80.13,0 160.74,103.91 196.64,156.89 0.1,-0.582 0.15,-0.89 0.15,-0.89 0,0 2.09,3.449 6.17,10.367 8.32,12.722 13.03,20.82 13.03,20.82 0,0 0.16,0.84 0.42,2.301 32.21,55.93 103.65,183.441 210.79,393.71 138.42,271.67 271.19,612 271.19,612 0,0 12.35,-83.21 52.8,-220.8 23.8,-80.96 74.36,-170.45 114.25,-256.27 -32.11,-44.55 -51.85,-70.14 -51.85,-70.14 0,0 0.19,-0.47 0.54,-1.33 -25.66,-34.06 -54.43,-70.82 -84.53,-106.66 -109.25,-130.12 -239.38,-278.709 -256.81,-321.6 -20.52,-50.531 -15.67,-87.699 24,-117.602 28.98,-21.839 80.57,-25.226 134.4,-21.597 98.18,6.597 167.26,30.949 201.34,45.781 53.13,18.789 115,48.34 173.07,91.02 107.17,78.789 171.81,191.5 165.6,340.798 -3.44,82.28 -29.68,163.83 -62.87,240.82 9.73,13.98 19.48,28.09 29.26,42.38 168.95,246.99 300,518.4 300,518.4 0,0 12.35,-83.2 52.81,-220.8 20.47,-69.65 60.86,-145.62 97.18,-220.14 -158.86,-129.08 -257.38,-279.06 -291.59,-377.46 -63.25,-181.971 -13.71,-264.428 79.21,-283.198 42.09,-8.511 101.53,10.778 146.25,29.707 55.64,18.45 122.5,49.18 184.95,95.082 107.17,78.789 210.21,189.119 204,338.409 -2.84,67.97 -21.27,135.43 -46.28,200.24 134.66,56.09 309.01,87.28 531.08,61.35 476.4,-55.63 569.86,-353.09 552,-477.59 -17.87,-124.51 -117.8,-192.94 -151.21,-213.612 -33.4,-20.656 -43.6,-27.828 -40.79,-43.199 4.06,-22.34 19.51,-21.48 47.99,-16.68 39.22,6.621 250.17,101.27 259.2,331.081 11.47,291.76 -268.06,612.24 -763.2,609.6" />
			</g>
		</g>
	</symbol>
	<symbol id="add-art" viewBox="0 0 128 128" fill="currentColor">
		<path d="M64,0a64,64,0,1,0,64,64A64.07,64.07,0,0,0,64,0Zm0,122a58,58,0,1,1,58-58A58.07,58.07,0,0,1,64,122Z"/>
		<path d="M90,61H67V38a3,3,0,0,0-6,0V61H38a3,3,0,0,0,0,6H61V90a3,3,0,0,0,6,0V67H90a3,3,0,0,0,0-6Z"/>
	</symbol>
	<symbol id="header-logo" viewBox="0 0 40 16" fill="none">
		<path d="M10.7902 8.20744C10.7112 8.20744 10.642 8.26999 10.5828 8.39508C10.3325 8.88227 10.0657 9.32337 9.78249 9.71839C9.50586 10.1134 9.22593 10.4492 8.94271 10.7257C8.65948 11.0022 8.37956 11.2162 8.10292 11.3676C7.82628 11.5124 7.56611 11.5849 7.32241 11.5849C7.0853 11.5849 6.86465 11.5355 6.66046 11.4367C6.46287 11.3314 6.24551 11.1372 6.00839 10.8541C5.77786 10.571 5.51111 10.1792 5.20813 9.67889C4.91173 9.17853 4.54618 8.52675 4.11146 7.72354C4.03901 7.59187 3.96327 7.49641 3.88423 7.43716C3.81178 7.37132 3.74591 7.3384 3.68663 7.3384C3.60101 7.3384 3.52197 7.43057 3.44952 7.61491C3.37706 7.79267 3.31449 8.04614 3.2618 8.37533C3.20911 8.69793 3.16629 9.08965 3.13336 9.55051C3.10701 10.0048 3.09384 10.5084 3.09384 11.0615C3.09384 11.3906 3.11031 11.7198 3.14324 12.049C3.18276 12.3782 3.20252 12.7172 3.20252 13.0662C3.20252 13.1847 3.16959 13.2966 3.10372 13.4019C3.03786 13.5007 2.94894 13.5863 2.83696 13.6587C2.73158 13.7377 2.60314 13.8003 2.45165 13.8463C2.30675 13.8924 2.15196 13.9155 1.9873 13.9155C1.65797 13.9155 1.42085 13.718 1.27595 13.3229C1.13105 12.9279 1.05859 12.2959 1.05859 11.4269C1.05859 10.3274 1.11787 9.32996 1.23643 8.43458C1.36158 7.53262 1.53612 6.76233 1.76006 6.12372C1.99059 5.47852 2.26064 4.98145 2.57021 4.63252C2.88636 4.277 3.23875 4.09924 3.62735 4.09924C3.96985 4.09924 4.29589 4.29675 4.60546 4.69177C4.92161 5.08021 5.26082 5.71224 5.62308 6.58786C5.76798 6.94338 5.92277 7.27586 6.08743 7.58529C6.25868 7.89472 6.42664 8.16465 6.5913 8.39508C6.76255 8.61892 6.92722 8.79668 7.0853 8.92835C7.24337 9.05344 7.38498 9.11599 7.51013 9.11599C7.63527 9.11599 7.75383 9.08965 7.8658 9.03698C7.98436 8.97773 8.11609 8.85593 8.261 8.67159C8.41249 8.48066 8.58703 8.20415 8.78463 7.84205C8.98881 7.47995 9.2391 6.99605 9.5355 6.39035C9.69357 6.07434 9.83519 5.81099 9.96033 5.60032C10.0855 5.38964 10.2106 5.22176 10.3358 5.09667C10.4609 4.96499 10.5926 4.87282 10.731 4.82015C10.8693 4.7609 11.0241 4.73127 11.1953 4.73127C11.3995 4.73127 11.6004 4.8399 11.798 5.05716C11.9956 5.27442 12.1866 5.56411 12.371 5.92621C12.562 6.28831 12.7464 6.70966 12.9243 7.19027C13.1021 7.67088 13.2734 8.17452 13.438 8.70122C13.6093 9.22791 13.7739 9.76448 13.932 10.3109C14.0967 10.8508 14.2548 11.3643 14.4063 11.8515C14.4458 11.9963 14.4721 12.0984 14.4853 12.1576C14.5051 12.2103 14.5149 12.2761 14.5149 12.3551C14.5149 12.4671 14.4787 12.579 14.4063 12.6909C14.3404 12.7963 14.2515 12.8917 14.1395 12.9773C14.0275 13.0629 13.8991 13.132 13.7542 13.1847C13.6159 13.2374 13.4776 13.2637 13.3392 13.2637C13.1548 13.2637 13.0099 13.2439 12.9045 13.2044C12.8057 13.1584 12.7267 13.0793 12.6674 12.9674C12.6345 12.9082 12.5785 12.7502 12.4994 12.4934C12.4204 12.2366 12.3249 11.9338 12.2129 11.5849C12.1075 11.2293 11.989 10.8541 11.8573 10.4591C11.7321 10.064 11.6037 9.70193 11.4719 9.37275C11.3468 9.03698 11.2249 8.76047 11.1064 8.54321C10.9878 8.31937 10.8824 8.20744 10.7902 8.20744Z" fill="#F0438C"/>
		<path d="M14.7224 2.34141C14.7224 1.99906 14.8212 1.75546 15.0188 1.61062C15.2164 1.46578 15.5424 1.39336 15.9969 1.39336C16.155 1.39336 16.2933 1.40982 16.4119 1.44274C16.5304 1.47566 16.6292 1.53162 16.7083 1.61062C16.7873 1.68304 16.8499 1.78509 16.896 1.91676C16.9487 2.04185 16.9915 2.20315 17.0244 2.40066C17.11 2.9866 17.1957 3.60218 17.2813 4.24737C17.3735 4.88599 17.4591 5.5246 17.5382 6.16322C17.6238 6.79525 17.7028 7.41411 17.7753 8.01981C17.8477 8.61892 17.9103 9.17853 17.963 9.69864C18.0223 10.2122 18.0651 10.6697 18.0914 11.0713C18.1244 11.4664 18.1408 11.7791 18.1408 12.0095C18.1408 12.2465 18.1178 12.4473 18.0717 12.6119C18.0322 12.7765 17.9597 12.9082 17.8543 13.0069C17.7555 13.1057 17.6238 13.1781 17.4591 13.2242C17.3011 13.2637 17.1035 13.2834 16.8663 13.2834C16.6358 13.2834 16.4514 13.2242 16.3131 13.1057C16.1813 12.9872 16.1155 12.8061 16.1155 12.5625C16.1155 12.3124 16.0957 11.9799 16.0562 11.5651C16.0167 11.1438 15.964 10.6763 15.8981 10.1628C15.8322 9.64926 15.7565 9.10282 15.6709 8.52346C15.5918 7.9441 15.5062 7.37132 15.414 6.80512C15.3284 6.23893 15.2428 5.69578 15.1571 5.17567C15.0781 4.64898 15.0056 4.18483 14.9398 3.78323C14.8739 3.37504 14.8212 3.04257 14.7817 2.7858C14.7422 2.52246 14.7224 2.37432 14.7224 2.34141Z" fill="#F0438C"/>
		<path d="M21.7964 10.0937C21.7964 10.9759 21.9314 11.6573 22.2015 12.1379C22.4715 12.6185 22.8634 12.8588 23.3772 12.8588C23.6999 12.8588 23.9963 12.7633 24.2663 12.5724C24.543 12.3815 24.7801 12.1148 24.9777 11.7725C25.1753 11.4301 25.3268 11.0252 25.4322 10.5578C25.5441 10.0838 25.6001 9.57026 25.6001 9.01723C25.6001 8.68147 25.5869 8.39179 25.5606 8.14819C25.5343 7.89801 25.5046 7.67746 25.4717 7.48653C25.4453 7.28902 25.419 7.11456 25.3926 6.96313C25.3663 6.81171 25.3531 6.66687 25.3531 6.52861C25.3531 6.31793 25.442 6.16651 25.6199 6.07434C25.7977 5.97558 26.0809 5.92621 26.4695 5.92621C26.9635 5.92621 27.3456 6.03813 27.6156 6.26197C27.8922 6.48582 28.0306 6.81171 28.0306 7.23965C28.0306 8.40495 27.9153 9.45175 27.6848 10.38C27.4608 11.3083 27.1348 12.0984 26.7067 12.7502C26.2851 13.3954 25.7714 13.8924 25.1654 14.2414C24.5594 14.5903 23.881 14.7648 23.1302 14.7648C22.5966 14.7648 22.1027 14.6528 21.6482 14.429C21.2003 14.2117 20.8117 13.9056 20.4824 13.5106C20.1596 13.109 19.906 12.635 19.7216 12.0885C19.5372 11.5355 19.445 10.9298 19.445 10.2714C19.445 10.0212 19.4516 9.7546 19.4647 9.47151C19.4779 9.18841 19.4977 8.88556 19.524 8.56296C19.5504 8.23378 19.5833 7.87826 19.6228 7.49641C19.6689 7.11456 19.7183 6.69979 19.771 6.2521C19.7908 6.06117 19.8797 5.90975 20.0378 5.79782C20.2024 5.67932 20.4099 5.62007 20.6602 5.62007C20.8841 5.62007 21.0949 5.64311 21.2925 5.68919C21.4901 5.73528 21.6581 5.79782 21.7964 5.87683C21.9413 5.95583 22.0533 6.048 22.1323 6.15334C22.2179 6.25868 22.2607 6.3706 22.2607 6.48911C22.2607 6.60761 22.2344 6.79525 22.1817 7.05201C22.1356 7.30219 22.0829 7.59187 22.0236 7.92105C21.9709 8.24365 21.9182 8.59588 21.8655 8.97773C21.8194 9.353 21.7964 9.72498 21.7964 10.0937Z" fill="#F0438C"/>
		<path d="M30.1448 2.1834C30.1448 1.83446 30.2436 1.59087 30.4412 1.45261C30.6388 1.30777 30.9649 1.23535 31.4193 1.23535C31.584 1.23535 31.7223 1.25181 31.8343 1.28473C31.9529 1.31106 32.0517 1.36373 32.1307 1.44274C32.2163 1.52174 32.2822 1.62708 32.3283 1.75875C32.381 1.88384 32.4238 2.04514 32.4567 2.24265C32.5358 2.85493 32.6214 3.48696 32.7136 4.13874C32.8124 4.79053 32.9145 5.4456 33.0199 6.10397C33.0594 6.40023 33.2142 6.54836 33.4842 6.54836C33.5567 6.54836 33.6752 6.54178 33.8399 6.52861C34.0112 6.50886 34.212 6.48911 34.4426 6.46936C34.6731 6.44302 34.9201 6.41669 35.1836 6.39035C35.4536 6.36402 35.7204 6.34098 35.9838 6.32123C36.2539 6.29489 36.5075 6.27514 36.7446 6.26197C36.9883 6.24222 37.2023 6.23235 37.3868 6.23235C37.5317 6.23235 37.6469 6.26197 37.7326 6.32123C37.8182 6.3739 37.8841 6.44632 37.9302 6.53849C37.9828 6.62407 38.0158 6.72283 38.029 6.83475C38.0487 6.94009 38.0586 7.04872 38.0586 7.16064C38.0586 7.2594 38.0388 7.36144 37.9993 7.46678C37.9664 7.57212 37.917 7.66758 37.8511 7.75317C37.7918 7.83217 37.7161 7.89801 37.6239 7.95068C37.5317 8.00335 37.4263 8.02968 37.3077 8.02968C36.7347 8.02968 36.1551 8.04944 35.5689 8.08894C34.9893 8.12186 34.4096 8.16794 33.83 8.22719C33.5336 8.2667 33.3854 8.41483 33.3854 8.67159C33.3854 8.69134 33.3887 8.71768 33.3953 8.75059C33.4019 8.77693 33.4052 8.79997 33.4052 8.81972C33.4842 9.3925 33.5567 9.92907 33.6225 10.4294C33.695 10.9298 33.7543 11.3775 33.8004 11.7725C33.8531 12.1609 33.8926 12.4868 33.9189 12.7502C33.9519 13.0069 33.9683 13.1781 33.9683 13.2637C33.9683 13.5007 33.9453 13.6982 33.8992 13.8562C33.8531 14.0208 33.7773 14.1525 33.6719 14.2512C33.5666 14.3566 33.4249 14.429 33.2471 14.4685C33.0759 14.5146 32.8585 14.5376 32.595 14.5376C32.3448 14.5376 32.1603 14.4784 32.0418 14.3599C31.9232 14.2414 31.8573 14.0603 31.8442 13.8167C31.8047 13.0398 31.7421 12.2597 31.6565 11.4762C31.5708 10.6862 31.472 9.89944 31.3601 9.11599C31.3008 8.83289 31.1526 8.69134 30.9155 8.69134C30.8957 8.69134 30.8727 8.69463 30.8463 8.70122C30.82 8.7078 30.7969 8.71109 30.7772 8.71109C30.3688 8.80326 29.9835 8.89544 29.6212 8.98761C29.259 9.07978 28.9197 9.17853 28.6036 9.28387C28.4258 9.34312 28.2677 9.38592 28.1294 9.41225C27.991 9.432 27.8659 9.44188 27.7539 9.44188C27.6024 9.44188 27.4905 9.37604 27.418 9.24437C27.3456 9.10611 27.3093 8.93494 27.3093 8.73084C27.3093 8.65842 27.3159 8.57613 27.3291 8.48396C27.3423 8.3852 27.3686 8.28974 27.4081 8.19757C27.4411 8.09881 27.4938 8.00993 27.5662 7.93093C27.6321 7.84534 27.7243 7.77621 27.8428 7.72354C28.1195 7.61162 28.4883 7.49641 28.9494 7.3779C29.4104 7.25281 29.9308 7.1376 30.5104 7.03226C30.6421 6.99934 30.7442 6.94667 30.8167 6.87425C30.8957 6.79525 30.9352 6.68004 30.9352 6.52861C30.9352 6.49569 30.9352 6.46277 30.9352 6.42986C30.9352 6.39035 30.9286 6.35085 30.9155 6.31135C30.8101 5.70565 30.708 5.15592 30.6092 4.66214C30.517 4.16179 30.4347 3.73385 30.3622 3.37833C30.2963 3.02281 30.2436 2.74301 30.2041 2.53892C30.1646 2.33482 30.1448 2.21632 30.1448 2.1834Z" fill="#F0438C"/>
	</symbol>
	<symbol id="arrow-slider" viewBox="0 0 17 29" fill="none">
		<path d="M16.1016 16.1009C17.0391 15.1634 17.0391 13.6409 16.1016 12.7034L4.10156 0.703396C3.16406 -0.234104 1.64156 -0.234104 0.704062 0.703396C-0.233438 1.6409 -0.233438 3.1634 0.704062 4.1009L11.0091 14.4059L0.711563 24.7109C-0.225937 25.6484 -0.225937 27.1709 0.711563 28.1084C1.64906 29.0459 3.17156 29.0459 4.10906 28.1084L16.1091 16.1084L16.1016 16.1009Z" fill="currentColor"/>
	</symbol>
	<symbol id="twoTriangle" viewBox="0 0 41 41" fill="none">
		<path d="M13.5358 12.1531C14.0672 10.7498 15.8114 10.2795 16.9766 11.2249C21.8922 15.2129 25.1431 18.4057 29.2709 23.5172C30.1987 24.666 29.7515 26.38 28.3805 26.9284C22.2012 29.3996 17.7845 30.5645 11.52 31.4554C10.0529 31.6641 8.81059 30.391 9.04855 28.9283C10.0763 22.6116 11.2372 18.2235 13.5358 12.1531Z" fill="#F9CF67"/>
		<path d="M35.9507 15.6971C37.6866 17.9242 36.8008 21.1719 34.1719 22.2027C28.9216 24.2613 24.5848 25.3469 19.1216 26.198C16.244 26.6463 13.7655 24.1798 14.2158 21.3025C15.0784 15.7904 16.2093 11.4745 18.217 6.32372C19.2506 3.67223 22.5286 2.7768 24.7708 4.52936C29.2447 8.02643 32.451 11.2072 35.9507 15.6971ZM19.4258 19.8045C19.3484 20.498 19.9272 21.0859 20.6216 21.0172C24.3876 20.6446 26.8054 20.015 30.0889 18.4821C30.6927 18.2002 30.9033 17.4488 30.5316 16.8958C28.4402 13.784 26.6107 12.075 23.5539 9.94439C22.993 9.55347 22.2163 9.76362 21.933 10.3858C20.5307 13.4656 19.8669 15.8518 19.4258 19.8045Z" fill="currentColor"/>
	</symbol>
	<symbol id="figure" viewBox="0 0 31 21" fill="none">
		<path d="M4.45762 1.29266C7.27963 7.6378 20.4371 7.00001 28.7126 5.53828C29.9421 5.32111 31.0855 6.3 30.9267 7.5384C30.3155 12.3064 28.8118 15.3353 25.4503 19.3444C24.8155 20.1016 23.7884 20.4123 22.8377 20.1431C4.93945 15.0749 0.197166 6.0462 0.000912057 1.53879C-0.0160406 1.14944 0.119669 0.760526 0.438601 0.536549C1.00512 0.138696 1.88819 -0.110777 3.06955 0.0496807C3.72567 0.138798 4.18854 0.687659 4.45762 1.29266Z" fill="#F9CF67"/>
	</symbol>
</svg>
